FILE "C#꞉ Learn C# FAST! The Ultimate Course Book (Beginners to Advanced) [B073RYWPQY].m4b" MP3
TRACK 1 AUDIO
  TITLE "Opening Credits"
  INDEX 01 0:00:00
TRACK 2 AUDIO
  TITLE "Chapter 1"
  INDEX 01 0:17:03
TRACK 3 AUDIO
  TITLE "Chapter 2"
  INDEX 01 23:07:15
TRACK 4 AUDIO
  TITLE "Chapter 3"
  INDEX 01 126:25:26
TRACK 5 AUDIO
  TITLE "End Credits"
  INDEX 01 187:38:18
